<svg xmlns="http://www.w3.org/2000/svg" width="178" height="59" viewBox="0 0 178 59">
  <defs>
    <style>
      .cls-1 {
        isolation: isolate;
      }

      .cls-2 {
        fill: #fff;
        opacity: 0.6;
      }

      .cls-3 {
        fill: #252222;
        opacity: 0.5;
      }

      .cls-4 {
        fill: none;
        stroke: #707070;
        stroke-linejoin: round;
      }

      .cls-5, .cls-6 {
        stroke: none;
      }

      .cls-6 {
        fill: #2a2a2a;
      }
    </style>
  </defs>
  <g id="Group_39" data-name="Group 39" transform="translate(-1422 -246)">
    <g id="Group_30" data-name="Group 30" class="cls-1" transform="translate(1422.356 246.329)">
      <path id="Subtraction_1" data-name="Subtraction 1" class="cls-2" d="M176.576,59H.02c-.014-.275-.02-.543-.02-.8a16.21,16.21,0,0,1,5.172-11.84,18.041,18.041,0,0,1,12.487-4.9,18.679,18.679,0,0,1,3.749.379,20.058,20.058,0,0,1,7.935-12.754,26.3,26.3,0,0,1,15.863-5.165,27.039,27.039,0,0,1,10.029,1.889A41.1,41.1,0,0,1,70.812,7.238a45.234,45.234,0,0,1,49.212.081,41.048,41.048,0,0,1,15.565,18.757A28.541,28.541,0,0,1,169.724,30.5,27.679,27.679,0,0,1,176.577,59Z" transform="translate(-0.356 -0.329)"/>
      <g id="Group_4" data-name="Group 4" transform="translate(76.441 25.991)">
        <g id="Group_3" data-name="Group 3">
          <g id="Group_2" data-name="Group 2" transform="translate(14.739 6.889)">
            <g id="Subtraction_4" data-name="Subtraction 4" class="cls-3" transform="translate(0.464 -0.209)">
              <path class="cls-5" d="M 6.500450134277344 5.25 C 3.60851788520813 5.25 1.208330631256104 3.290855646133423 0.8085018992424011 0.75 L 12.19137096405029 0.75 C 11.79113864898682 3.291088342666626 9.391360282897949 5.25 6.500450134277344 5.25 Z"/>
              <path class="cls-6" d="M 1.785619735717773 1.5 C 2.473551750183105 3.246104955673218 4.327323913574219 4.5 6.500450134277344 4.5 C 8.672763824462891 4.5 10.52616310119629 3.246172904968262 11.21421241760254 1.5 L 1.785619735717773 1.5 M 0 0 L 12.99899959564209 0 L 13 0 L 13 0.0009999275207519531 C 12.99929046630859 3.308860063552856 10.08360004425049 6 6.500450134277344 6 C 2.916540145874023 6 0 3.308860063552856 0 0 Z"/>
            </g>
          </g>
          <path id="Path_2" data-name="Path 2" class="cls-4" d="M933.49,290.251A4.677,4.677,0,0,1,935,287.316c2.036-2.136,6.559-4.243,10,2.489" transform="translate(-933.49 -285.233)"/>
          <path id="Path_3" data-name="Path 3" class="cls-4" d="M933.49,290.251a4.631,4.631,0,0,1,1.542-2.936c2.081-2.136,6.7-4.243,10.224,2.489" transform="translate(-901.46 -285.233)"/>
        </g>
      </g>
    </g>
  </g>
</svg>
