<svg xmlns="http://www.w3.org/2000/svg" width="286" height="85" viewBox="0 0 286 85">
  <defs>
    <style>
      .cls-1 {
        isolation: isolate;
      }

      .cls-2 {
        fill: #fff;
        opacity: 0.6;
      }

      .cls-3 {
        fill: #252222;
        opacity: 0.5;
      }

      .cls-4 {
        fill: none;
        stroke: #707070;
        stroke-linejoin: round;
      }

      .cls-5, .cls-6 {
        stroke: none;
      }

      .cls-6 {
        fill: #2a2a2a;
      }
    </style>
  </defs>
  <g id="Group_31" data-name="Group 31" class="cls-1" transform="translate(0.355 0.287)">
    <path id="Subtraction_1" data-name="Subtraction 1" class="cls-2" d="M283.712,85H.032C.01,84.6,0,84.218,0,83.852A22.307,22.307,0,0,1,8.31,66.8,30.887,30.887,0,0,1,28.373,59.73a33.356,33.356,0,0,1,6.024.546c1.243-7.094,5.771-13.62,12.749-18.375A45.591,45.591,0,0,1,72.634,34.46a47.883,47.883,0,0,1,16.114,2.721c5.028-10.837,13.684-20.089,25.028-26.754a79.779,79.779,0,0,1,79.071.116c11.393,6.743,20.041,16.087,25.01,27.022a49.945,49.945,0,0,1,22.745-5.4,48.218,48.218,0,0,1,32.1,11.775c8.575,7.593,13.3,17.689,13.3,28.427A35.991,35.991,0,0,1,283.713,85Z" transform="translate(-0.355 -0.287)"/>
    <g id="Group_4" data-name="Group 4" transform="translate(138.371 40.766)">
      <g id="Group_3" data-name="Group 3">
        <g id="Group_2" data-name="Group 2" transform="translate(14.997 6.881)">
          <g id="Subtraction_4" data-name="Subtraction 4" class="cls-3" transform="translate(0.276 0.066)">
            <path class="cls-5" d="M 6.500450134277344 5.25 C 3.60851788520813 5.25 1.208330631256104 3.290855646133423 0.8085018992424011 0.75 L 12.19137096405029 0.75 C 11.79113864898682 3.291088342666626 9.391360282897949 5.25 6.500450134277344 5.25 Z"/>
            <path class="cls-6" d="M 1.785619735717773 1.5 C 2.473551750183105 3.246104955673218 4.327323913574219 4.5 6.500450134277344 4.5 C 8.672763824462891 4.5 10.52616310119629 3.246172904968262 11.21421241760254 1.5 L 1.785619735717773 1.5 M 0 0 L 12.99899959564209 0 L 13 0 L 13 0.0009999275207519531 C 12.99929046630859 3.308860063552856 10.08360004425049 6 6.500450134277344 6 C 2.916540145874023 6 0 3.308860063552856 0 0 Z"/>
          </g>
        </g>
        <path id="Path_2" data-name="Path 2" class="cls-4" d="M933.49,290.251A4.677,4.677,0,0,1,935,287.316c2.036-2.136,6.559-4.243,10,2.489" transform="translate(-933.49 -285.233)"/>
        <path id="Path_3" data-name="Path 3" class="cls-4" d="M933.49,290.251a4.631,4.631,0,0,1,1.542-2.936c2.081-2.136,6.7-4.243,10.224,2.489" transform="translate(-901.46 -285.233)"/>
      </g>
    </g>
  </g>
</svg>
