<svg xmlns="http://www.w3.org/2000/svg" width="803.82" height="231.905" viewBox="0 0 803.82 231.905">
  <defs>
    <style>
      .cls-1 {
        fill: #f3f7f6;
      }

      .cls-12, .cls-2 {
        fill: #217d68;
      }

      .cls-2 {
        stroke: #707070;
      }

      .cls-3 {
        fill: #6da0ab;
      }

      .cls-4 {
        fill: #daebec;
      }

      .cls-5, .cls-6 {
        fill: #934e4e;
      }

      .cls-14, .cls-7 {
        fill: #46a891;
      }

      .cls-7 {
        opacity: 0.5;
      }

      .cls-8 {
        fill: #f4a0a0;
      }

      .cls-9 {
        isolation: isolate;
      }

      .cls-10 {
        fill: #b3946f;
      }

      .cls-11 {
        fill: #4ab19a;
      }

      .cls-13 {
        fill: #f6d546;
      }

      .cls-15 {
        fill: #fff;
      }

      .cls-16, .cls-17 {
        fill: rgba(0,0,0,0);
      }

      .cls-16 {
        stroke: rgba(0,0,0,0);
      }

      .cls-18 {
        fill: rgba(109,189,142,0.42);
      }

      .cls-19 {
        fill: rgba(146,202,127,1);
      }

      .cls-20 {
        fill: #8fd182;
      }

      .cls-21 {
        fill: #2c9a81;
      }

      .cls-22, .cls-23 {
        stroke: none;
      }

      .cls-23 {
        fill: #707070;
      }

      .cls-24 {
        fill: none;
      }
    </style>
  </defs>
  <g id="Group_33" data-name="Group 33" transform="translate(-401.695 -540.095)">
    <path id="Subtraction_7" data-name="Subtraction 7" class="cls-1" d="M-1409.794,177.664h-396.561c5.925-11.319,15.646-28.884,28.31-48.3a465.279,465.279,0,0,1,44.918-58.8,315.236,315.236,0,0,1,27.847-27.2,223.932,223.932,0,0,1,30.99-22.467,158.187,158.187,0,0,1,33.8-15.279,128.373,128.373,0,0,1,17.847-4.178,118.278,118.278,0,0,1,18.423-1.461A116.956,116.956,0,0,1-1581.8,2.174a127.92,127.92,0,0,1,23.1,6.9A154.688,154.688,0,0,1-1535,21.19a201.794,201.794,0,0,1,24.24,17.837,275.572,275.572,0,0,1,24.709,24.062,384.1,384.1,0,0,1,25.109,30.79c8.513,11.555,17.072,24.348,25.44,38.024,8.606,14.064,17.254,29.461,25.7,45.759h0v0Z" transform="translate(2322 593.836)"/>
    <path id="Subtraction_5" data-name="Subtraction 5" class="cls-2" d="M-1157.331,220.659h-517.111c4.627-8.711,14.545-26.588,28.977-48.457a581.455,581.455,0,0,1,56.247-72.689,419.925,419.925,0,0,1,36.958-35.82,305.771,305.771,0,0,1,42.106-30.346,238.3,238.3,0,0,1,22.809-11.919,203.943,203.943,0,0,1,23.888-9.108,179.627,179.627,0,0,1,24.9-5.817,165.994,165.994,0,0,1,25.836-2.046,164.2,164.2,0,0,1,29.24,2.645,177.438,177.438,0,0,1,30.188,8.354,209.48,209.48,0,0,1,31.046,14.692,265.36,265.36,0,0,1,31.813,21.658,352.072,352.072,0,0,1,32.489,29.252,478.656,478.656,0,0,1,33.075,37.474c11.226,14.074,22.521,29.66,33.57,46.324,11.37,17.149,22.8,35.924,33.975,55.8v0h0v0h0Z" transform="translate(2362 550.841)"/>
    <g id="Group_18" data-name="Group 18" transform="translate(945.032 540.095)">
      <rect id="Rectangle_13" data-name="Rectangle 13" class="cls-3" width="34" height="37" transform="translate(1.968 16.905)"/>
      <rect id="Rectangle_15" data-name="Rectangle 15" class="cls-4" width="10" height="8" transform="translate(6.968 37.905)"/>
      <rect id="Rectangle_17" data-name="Rectangle 17" class="cls-5" width="9" height="17" transform="translate(22.968 36.905)"/>
      <g id="Path_10" data-name="Path 10" class="cls-6">
        <path class="cls-22" d="M 37.92902755737305 18.95024299621582 L 1.212392687797546 18.95024299621582 L 19.57070922851563 0.7049328684806824 L 37.92902755737305 18.95024299621582 Z"/>
        <path class="cls-23" d="M 19.57070922851563 1.409873962402344 L 2.424797058105469 18.45024299621582 L 36.71662139892578 18.45024299621582 L 19.57070922851563 1.409873962402344 M 19.57070922851563 1.9073486328125e-06 L 39.14141845703125 19.45024299621582 L 0 19.45024299621582 L 19.57070922851563 1.9073486328125e-06 Z"/>
      </g>
      <rect id="Rectangle_18" data-name="Rectangle 18" class="cls-4" width="10" height="8" transform="translate(6.968 23.905)"/>
      <rect id="Rectangle_19" data-name="Rectangle 19" class="cls-4" width="10" height="8" transform="translate(21.968 23.905)"/>
      <rect id="Rectangle_20" data-name="Rectangle 20" class="cls-5" width="7" height="12" transform="translate(23.968 1.905)"/>
    </g>
    <g id="Group_21" data-name="Group 21" transform="translate(1039.057 563.7)">
      <ellipse id="Ellipse_8" data-name="Ellipse 8" class="cls-7" cx="9" cy="4" rx="9" ry="4" transform="translate(6.943 67.3)"/>
      <g id="Group_9" data-name="Group 9">
        <path id="Polygon_1" data-name="Polygon 1" class="cls-8" d="M15.5,0,31,60H0Z" transform="translate(-0.057 0.3)"/>
        <g id="Group_6" data-name="Group 6" class="cls-9" transform="translate(9.123 42)">
          <rect id="Rectangle_6" data-name="Rectangle 6" class="cls-10" width="2" height="29" transform="translate(5.82 0.3)"/>
          <rect id="Rectangle_7" data-name="Rectangle 7" class="cls-10" width="2" height="11" transform="matrix(0.574, 0.819, -0.819, 0.574, 14.011, 2.477)"/>
          <rect id="Rectangle_8" data-name="Rectangle 8" class="cls-10" width="2" height="7" transform="matrix(-0.574, 0.819, -0.819, -0.574, 6.881, 10.492)"/>
          <rect id="Rectangle_9" data-name="Rectangle 9" class="cls-10" width="2" height="7" transform="matrix(0.574, 0.819, -0.819, 0.574, 10.734, 9.477)"/>
        </g>
      </g>
    </g>
    <path id="Subtraction_6" data-name="Subtraction 6" class="cls-11" d="M-1159.654,154.914H-1560.3c5.772-8.5,15.359-21.927,28.247-37.611a483.043,483.043,0,0,1,49.036-51.768c21.625-19.524,43.425-34.936,64.8-45.811A193.183,193.183,0,0,1-1381.49,5.34a156.644,156.644,0,0,1,19.177-3.963A141.342,141.342,0,0,1-1342.7-.014a133.838,133.838,0,0,1,22.477,1.9,136.4,136.4,0,0,1,22.815,6,151.49,151.49,0,0,1,23.042,10.539,181.941,181.941,0,0,1,23.157,15.529,231.858,231.858,0,0,1,23.161,20.967,306.773,306.773,0,0,1,23.054,26.852c7.732,10.083,15.415,21.247,22.835,33.184,7.635,12.282,15.206,25.727,22.5,39.962Z" transform="translate(1962 616.586)"/>
    <g id="Group_17" data-name="Group 17" transform="translate(601.329 587.879)">
      <rect id="Rectangle_13-2" data-name="Rectangle 13" class="cls-3" width="42" height="37" transform="translate(2.671 20.121)"/>
      <rect id="Rectangle_15-2" data-name="Rectangle 15" class="cls-4" width="10" height="8" transform="translate(9.671 41.121)"/>
      <rect id="Rectangle_17-2" data-name="Rectangle 17" class="cls-5" width="9" height="17" transform="translate(29.671 40.121)"/>
      <g id="Path_10-2" data-name="Path 10" class="cls-6">
        <path class="cls-22" d="M 45.28973770141602 18.95024299621582 L 1.38080358505249 18.95024299621582 L 23.33526611328125 0.6509148478507996 L 45.28973770141602 18.95024299621582 Z"/>
        <path class="cls-23" d="M 23.33526611328125 1.301826477050781 L 2.761589050292969 18.45024299621582 L 43.90893173217773 18.45024299621582 L 23.33526611328125 1.301826477050781 M 23.33526611328125 1.9073486328125e-06 L 46.67052459716797 19.45024299621582 L -3.814697265625e-06 19.45024299621582 L 23.33526611328125 1.9073486328125e-06 Z"/>
      </g>
      <rect id="Rectangle_18-2" data-name="Rectangle 18" class="cls-4" width="10" height="8" transform="translate(9.671 26.121)"/>
      <rect id="Rectangle_19-2" data-name="Rectangle 19" class="cls-4" width="10" height="8" transform="translate(28.671 26.121)"/>
      <rect id="Rectangle_20-2" data-name="Rectangle 20" class="cls-5" width="7" height="12" transform="translate(30.671 2.121)"/>
    </g>
    <ellipse id="Ellipse_8-2" data-name="Ellipse 8" class="cls-7" cx="9" cy="4" rx="9" ry="4" transform="translate(535 684)"/>
    <g id="Group_9-2" data-name="Group 9" transform="translate(527.814 616.512)">
      <path id="Polygon_1-2" data-name="Polygon 1" class="cls-12" d="M15.5,0,31,60H0Z" transform="translate(0.186 0.488)"/>
      <g id="Group_6-2" data-name="Group 6" class="cls-9" transform="translate(9.685 42)">
        <rect id="Rectangle_6-2" data-name="Rectangle 6" class="cls-10" width="2" height="29" transform="translate(5.501 0.488)"/>
        <rect id="Rectangle_7-2" data-name="Rectangle 7" class="cls-10" width="2" height="11" transform="matrix(0.574, 0.819, -0.819, 0.574, 14.011, 2.477)"/>
        <rect id="Rectangle_8-2" data-name="Rectangle 8" class="cls-10" width="2" height="7" transform="matrix(-0.574, 0.819, -0.819, -0.574, 6.881, 10.492)"/>
        <rect id="Rectangle_9-2" data-name="Rectangle 9" class="cls-10" width="2" height="7" transform="matrix(0.574, 0.819, -0.819, 0.574, 10.734, 9.477)"/>
      </g>
    </g>
    <g id="Group_22" data-name="Group 22" transform="translate(921.193 564.033)">
      <ellipse id="Ellipse_8-3" data-name="Ellipse 8" class="cls-7" cx="9" cy="4" rx="9" ry="4" transform="translate(6.807 66.967)"/>
      <g id="Group_9-3" data-name="Group 9">
        <path id="Polygon_1-3" data-name="Polygon 1" class="cls-13" d="M15.5,0,31,60H0Z" transform="translate(-0.193 -0.033)"/>
        <g id="Group_6-3" data-name="Group 6" class="cls-9" transform="translate(9.146 42)">
          <rect id="Rectangle_6-3" data-name="Rectangle 6" class="cls-10" width="2" height="29" transform="translate(5.661 -0.033)"/>
          <rect id="Rectangle_7-3" data-name="Rectangle 7" class="cls-10" width="2" height="11" transform="matrix(0.574, 0.819, -0.819, 0.574, 14.011, 0.477)"/>
          <rect id="Rectangle_8-3" data-name="Rectangle 8" class="cls-10" width="2" height="7" transform="matrix(-0.574, 0.819, -0.819, -0.574, 6.881, 10.492)"/>
          <rect id="Rectangle_9-3" data-name="Rectangle 9" class="cls-10" width="2" height="7" transform="matrix(0.574, 0.819, -0.819, 0.574, 10.734, 9.477)"/>
        </g>
      </g>
    </g>
    <g id="Group_23" data-name="Group 23" transform="translate(699.445 556.262)">
      <ellipse id="Ellipse_8-4" data-name="Ellipse 8" class="cls-14" cx="9" cy="4" rx="9" ry="4" transform="translate(6.555 66.738)"/>
      <g id="Group_9-4" data-name="Group 9">
        <path id="Polygon_1-4" data-name="Polygon 1" class="cls-12" d="M15.5,0,31,60H0Z" transform="translate(-0.445 -0.262)"/>
        <g id="Group_6-4" data-name="Group 6" class="cls-9" transform="translate(9.513 42)">
          <rect id="Rectangle_6-4" data-name="Rectangle 6" class="cls-10" width="2" height="29" transform="translate(5.042 -0.262)"/>
          <rect id="Rectangle_7-4" data-name="Rectangle 7" class="cls-10" width="2" height="11" transform="matrix(0.574, 0.819, -0.819, 0.574, 14.011, 2.477)"/>
          <rect id="Rectangle_8-4" data-name="Rectangle 8" class="cls-10" width="2" height="7" transform="matrix(-0.574, 0.819, -0.819, -0.574, 6.881, 10.492)"/>
          <rect id="Rectangle_9-4" data-name="Rectangle 9" class="cls-10" width="2" height="7" transform="matrix(0.574, 0.819, -0.819, 0.574, 10.734, 9.477)"/>
        </g>
      </g>
    </g>
    <ellipse id="Ellipse_8-5" data-name="Ellipse 8" class="cls-14" cx="7.5" cy="4" rx="7.5" ry="4" transform="translate(500 702)"/>
    <g id="Group_9-5" data-name="Group 9" transform="translate(493.167 644.527)">
      <path id="Polygon_1-5" data-name="Polygon 1" class="cls-8" d="M14,0,28,50H0Z" transform="translate(-0.167 0.473)"/>
      <g id="Group_6-5" data-name="Group 6" class="cls-9" transform="translate(6.983 32)">
        <rect id="Rectangle_6-5" data-name="Rectangle 6" class="cls-10" width="2" height="29" transform="translate(5.851 0.473)"/>
        <rect id="Rectangle_7-5" data-name="Rectangle 7" class="cls-10" width="2" height="11" transform="matrix(0.574, 0.819, -0.819, 0.574, 14.011, 2.477)"/>
        <rect id="Rectangle_8-5" data-name="Rectangle 8" class="cls-10" width="2" height="7" transform="matrix(-0.574, 0.819, -0.819, -0.574, 6.881, 10.492)"/>
        <rect id="Rectangle_9-5" data-name="Rectangle 9" class="cls-10" width="2" height="7" transform="matrix(0.574, 0.819, -0.819, 0.574, 10.734, 9.477)"/>
      </g>
    </g>
    <g id="Group_25" data-name="Group 25" transform="translate(741 579)">
      <ellipse id="Ellipse_8-6" data-name="Ellipse 8" class="cls-14" cx="9" cy="4" rx="9" ry="4" transform="translate(7 67)"/>
      <g id="Group_9-6" data-name="Group 9">
        <path id="Polygon_1-6" data-name="Polygon 1" class="cls-13" d="M15.5,0,31,60H0Z"/>
        <g id="Group_6-6" data-name="Group 6" class="cls-9" transform="translate(9.962 42)">
          <rect id="Rectangle_6-6" data-name="Rectangle 6" class="cls-10" width="2" height="29" transform="translate(5.038)"/>
          <rect id="Rectangle_7-6" data-name="Rectangle 7" class="cls-10" width="2" height="11" transform="matrix(0.574, 0.819, -0.819, 0.574, 14.011, 0.477)"/>
          <rect id="Rectangle_8-6" data-name="Rectangle 8" class="cls-10" width="2" height="7" transform="matrix(-0.574, 0.819, -0.819, -0.574, 6.881, 10.492)"/>
          <rect id="Rectangle_9-6" data-name="Rectangle 9" class="cls-10" width="2" height="7" transform="matrix(0.574, 0.819, -0.819, 0.574, 10.734, 9.477)"/>
        </g>
      </g>
    </g>
    <g id="Group_32" data-name="Group 32" transform="translate(184 -160)">
      <rect id="Rectangle_22" data-name="Rectangle 22" class="cls-15" width="1" height="86" transform="translate(925 748)"/>
      <path id="Path_13" data-name="Path 13" class="cls-8" d="M7.557,0l7.557,23.616H0Z" transform="translate(900.999 762.723) rotate(-90)"/>
      <path id="Path_14" data-name="Path 14" class="cls-11" d="M7.557,0l7.557,23.616H0Z" transform="translate(900.999 772.723) rotate(-90)"/>
    </g>
    <g id="Group_20" data-name="Group 20" transform="translate(566 591)">
      <g id="Sizing_Rectangle" data-name="Sizing Rectangle" class="cls-16">
        <rect class="cls-22" width="31" height="75"/>
        <rect class="cls-24" x="0.5" y="0.5" width="30" height="74"/>
      </g>
      <path id="rgba_0_0_0_0_" data-name="rgba(0,0,0,0)" class="cls-17" d="M0,0H14.5L15,1.5l-2,4L.5,56Z"/>
      <path id="rgba_0_0_0_0_2" data-name="rgba(0,0,0,0)" class="cls-17" d="M16,0H30.5l.5.5v55H30Z"/>
      <path id="rgba_0_0_0_0_3" data-name="rgba(0,0,0,0)" class="cls-17" d="M0,60H15v7q-5.7-1-8,2.5Q6.3,73.3,8.5,74l1.5.5L0,75Z"/>
      <path id="rgba_0_0_0_0_4" data-name="rgba(0,0,0,0)" class="cls-17" d="M17,60H31V75l-9-.5,3-2q.8-3.7-1.5-4.5L17,67Z"/>
      <path id="rgba_109_189_142_0.42_" data-name="rgba(109,189,142,0.42)" class="cls-18" d="M13.5,5,14,7.5H13Z"/>
      <path id="rgba_109_189_142_0.42_2" data-name="rgba(109,189,142,0.42)" class="cls-18" d="M17.5,5,18,7.5H17Z"/>
      <path id="rgba_109_189_142_0.42_3" data-name="rgba(109,189,142,0.42)" class="cls-18" d="M12.5,9l.5,2.5H12Z"/>
      <path id="rgba_109_189_142_0.42_4" data-name="rgba(109,189,142,0.42)" class="cls-18" d="M18.5,9l.5,2.5H18Z"/>
      <path id="rgba_109_189_142_0.42_5" data-name="rgba(109,189,142,0.42)" class="cls-18" d="M11.5,13l.5,2.5H11Z"/>
      <path id="rgba_109_189_142_0.42_6" data-name="rgba(109,189,142,0.42)" class="cls-18" d="M19.5,13l.5,2.5H19Z"/>
      <path id="rgba_109_189_142_0.42_7" data-name="rgba(109,189,142,0.42)" class="cls-18" d="M10.5,17l.5,2.5H10Z"/>
      <path id="rgba_109_189_142_0.42_8" data-name="rgba(109,189,142,0.42)" class="cls-18" d="M20.5,17l.5,2.5H20Z"/>
      <path id="rgba_109_189_142_0.42_9" data-name="rgba(109,189,142,0.42)" class="cls-18" d="M9.5,21l.5,2.5H9Z"/>
      <path id="rgba_109_189_142_0.42_10" data-name="rgba(109,189,142,0.42)" class="cls-18" d="M21.5,21l.5,2.5H21Z"/>
      <path id="rgba_109_189_142_0.42_11" data-name="rgba(109,189,142,0.42)" class="cls-18" d="M5.5,36,6,38.5H5Z"/>
      <path id="rgba_109_189_142_0.42_12" data-name="rgba(109,189,142,0.42)" class="cls-18" d="M25.5,36l.5,2.5H25Z"/>
      <path id="rgba_109_189_142_0.42_13" data-name="rgba(109,189,142,0.42)" class="cls-18" d="M4.5,40,5,42.5H4Z"/>
      <path id="rgba_109_189_142_0.42_14" data-name="rgba(109,189,142,0.42)" class="cls-18" d="M26.5,40l.5,2.5H26Z"/>
      <path id="rgba_109_189_142_0.42_15" data-name="rgba(109,189,142,0.42)" class="cls-18" d="M3.5,44,4,46.5H3Z"/>
      <path id="rgba_109_189_142_0.42_16" data-name="rgba(109,189,142,0.42)" class="cls-18" d="M27.5,44l.5,2.5H27Z"/>
      <path id="rgba_109_189_142_0.42_17" data-name="rgba(109,189,142,0.42)" class="cls-18" d="M2.5,48,3,50.5H2Z"/>
      <path id="rgba_109_189_142_0.42_18" data-name="rgba(109,189,142,0.42)" class="cls-18" d="M28.5,48l.5,2.5H28Z"/>
      <path id="rgba_109_189_142_0.42_19" data-name="rgba(109,189,142,0.42)" class="cls-18" d="M1.5,52,2,54.5H1Z"/>
      <path id="rgba_109_189_142_0.42_20" data-name="rgba(109,189,142,0.42)" class="cls-18" d="M29.5,52l.5,2.5H29Z"/>
      <path id="rgba_109_189_142_0.42_21" data-name="rgba(109,189,142,0.42)" class="cls-18" d="M10.5,67H15q-1.7,5.2,2,4-2.2-6,4.5-4L25,69.5q.8,3.8-1.5,4.5l-2,1h-11L7,72.5Q6.3,68.8,8.5,68Z"/>
      <path id="rgba_146_202_127_1_" data-name="rgba(146,202,127,1)" class="cls-19" d="M15,42q4-1.4,2,5.5l1.5-.5L24,45l-2.5,4L18,51.5l3,2L17,56V70.5L15,71q1.1-10.5-1-17L8,50.5,10.5,49l3,2L15,49.5Z"/>
      <path id="rgba_143_209_130_1_" data-name="rgba(143,209,130,1)" class="cls-20" d="M15.5,1,31,60H17.5L17,56l4-2.5L18.5,52l-1.5.5,7-6q.8-2.6-2.5-1.5l-4,3L17,42l-2,.5v7q-1.2,2.8-2.5.5l-3-1q-3,1.5,0,3L14,54l1,6H.5L0,58.5l2-4Z"/>
    </g>
    <g id="Group_12" data-name="Group 12" transform="translate(886.265 590.095)">
      <ellipse id="Ellipse_8-7" data-name="Ellipse 8" class="cls-7" cx="9" cy="4" rx="9" ry="4" transform="translate(6.735 66.905)"/>
      <g id="Group_9-7" data-name="Group 9">
        <path id="Polygon_1-7" data-name="Polygon 1" class="cls-21" d="M15.5,0,31,60H0Z" transform="translate(-0.265 -0.095)"/>
        <g id="Group_6-7" data-name="Group 6" class="cls-9" transform="translate(9.954 42)">
          <rect id="Rectangle_6-7" data-name="Rectangle 6" class="cls-10" width="2" height="29" transform="translate(4.781 -0.095)"/>
          <rect id="Rectangle_7-7" data-name="Rectangle 7" class="cls-10" width="2" height="11" transform="matrix(0.574, 0.819, -0.819, 0.574, 14.011, 2.477)"/>
          <rect id="Rectangle_8-7" data-name="Rectangle 8" class="cls-10" width="2" height="7" transform="matrix(-0.574, 0.819, -0.819, -0.574, 6.881, 10.492)"/>
          <rect id="Rectangle_9-7" data-name="Rectangle 9" class="cls-10" width="2" height="7" transform="matrix(0.574, 0.819, -0.819, 0.574, 10.734, 9.477)"/>
        </g>
      </g>
    </g>
    <g id="Group_28" data-name="Group 28" transform="translate(645.292 566.609)">
      <rect id="Rectangle_22-2" data-name="Rectangle 22" class="cls-15" width="1" height="86" transform="translate(23.708 0.391)"/>
      <path id="Path_13-2" data-name="Path 13" class="cls-8" d="M7.557,0l7.557,23.616H0Z" transform="translate(0 25.115) rotate(-90)"/>
      <path id="Path_14-2" data-name="Path 14" class="cls-11" d="M7.557,0l7.557,23.616H0Z" transform="translate(0 15.115) rotate(-90)"/>
    </g>
  </g>
</svg>
